<svg xmlns="http://www.w3.org/2000/svg" style="display:block" viewBox="0 0 2048 2048"><path fill="#FAFAF9" d="M0 0h2048v2048H0z"/><path fill="#2F2F2F" d="M1692.97 907.081c3.75-.473 7.32-.746 11.02.26 5.08 1.381 9.9 4.646 12.41 9.362 2.19 4.113 2.55 8.563 1.11 12.979-2.06 6.32-6.94 9.707-12.52 12.745-3.22.536-6.15.867-9.38.169-5.2-1.122-9.89-4.092-12.71-8.645a17.6 17.6 0 0 1-2.15-13.614c1.74-6.773 6.41-10.034 12.22-13.256M487.87 1425.38a768 768 0 0 1 78.388 11.45c9.511 1.82 41.793 5.8 47.111 13.62.047 3.07-.885 4.5-2.464 6.97-28.533-5.98-56.966-11.89-85.754-16.56-11.466-1.85-24.161-1.35-35.238-4.25-2.657-.7-3.091-.79-4.405-3.06.118-3.24.971-5.27 2.362-8.17m1200-468.33 29.12-.18c-.56 43.61.22 87.21-.23 130.82-9.76.6-19.72.3-29.51.4zm-274.86-47.241 29.21.108c-.49 59.297.78 118.733.77 178.053l-29.95.01c.59-59.38-.09-118.788-.03-178.171m-619.291 46.586c16.923-.776 30.366 5.568 43.091 16.103-5.087 6.359-9.846 12.981-14.669 19.541-6.653-5.695-14.107-10.874-23.206-11.026-4.413-.074-11.559 1.506-14.483 5.029a10.36 10.36 0 0 0-2.404 7.69c1.434 15.898 34.03 19.238 47.161 30.368 6.784 5.76 11.103 13.26 11.58 22.22.581 10.95-3.452 24.08-11.136 32.07-9.088 9.44-21.612 12.56-34.275 12.79-18.525-.51-31.692-7.08-44.666-20 4.903-5.5 8.814-12.03 12.894-18.17 8.256 6.38 18.164 11.6 28.776 12.02 5.344.21 12.767-.85 16.479-5.22 2.083-2.44 3.575-6.1 3.047-9.38-1.984-12.35-33.94-20.2-44.06-27.08-7.767-5.28-13.687-12.52-15.211-21.98-1.588-9.866 1.374-21.992 7.6-29.843 8.402-10.595 20.667-13.87 33.482-15.132m87.266.813a68 68 0 0 1 4.53-.347c18.284-.936 31.521 3.187 45.209 15.574a297 297 0 0 0-14.334 18.836c-6.251-5.073-13.046-9.015-21.26-9.5-5.026-.297-11.643-.003-15.384 3.925-2.23 2.342-3.835 6.225-3.313 9.458 1.941 11.996 35.415 20.456 45.663 29.656 6.797 6.1 10.873 14.12 11.33 23.29.505 10.13-3.281 22.51-10.227 30.12-8.685 9.51-20.807 12.54-33.205 13.01-18.784-.03-31.711-5.44-45.603-18.17 4.184-6.54 8.22-13.22 13.263-19.15 8.537 5.69 17.334 10.7 27.867 11.04 5.672.19 11.565-.59 15.789-4.74 2.339-2.29 4.857-5.63 4.313-9.1-1.759-11.2-30.988-19.23-40.013-24.41-8.765-5.03-15.962-12.41-18.389-22.46-2.29-9.485-.27-21.557 4.958-29.797 6.598-10.399 17.297-14.716 28.806-17.235"/><path fill="#2F2F2F" d="M1831.69 836.168c8.45-.743 24.3-2.415 31.25 3.08 8.07 6.38 6.05 29.943 7.08 39.821 14.82 5.805 28.33 11.752 41.89 20.229 9.66-10.278 18.15-20.908 30.78-27.598 4.61 2.423 8.73 5.443 12.8 8.678 6.14 4.882 15.63 11.526 16.25 20.109.83 11.356-18.43 26.791-25.43 35.277 8.82 14.745 14 29.907 20.45 45.701 9.71 2.819 23.71 1.276 32.17 6.131 2.75 1.583 4.32 4.333 5.01 7.346 1.72 7.538 2.52 22.228-2.28 28.748-5.89 8.01-24.98 7.56-34.32 9.36-4.17 14.16-9.69 27.12-16.01 40.41 6.29 7.16 16.67 16.19 19.91 25.21 1.35 3.76 1.22 7.48-.57 11.08-4.32 8.68-18.79 17.85-27.68 21.14-11.75-5.87-20.26-15.03-30.3-23.26-15.94 9.38-25.46 15.64-43.88 20.26-.31 8.12 2.3 27.46-2.07 34.32-2.21 3.48-6.31 4.93-10.17 5.75-8.04 1.72-23.56 2.08-30.12-3.35-6.11-5.07-4.59-29.26-4.84-37.03-14.48-2.42-26.38-9.02-39.18-15.8-6.82 7.88-14.84 18.06-25.18 21.29-7.9 2.47-17.32 1.71-24.63-2.23-2.77-1.49-4.08-2.96-5.06-5.91.45-2.62 1.81-3.59 3.63-5.39 3.98-1.16 10.44 3.4 14.98 4.06 14.03 2.04 24.72-18.96 34.9-26.25 12.47 8.18 24.16 13.62 37.93 19.18 2.73 1.1 8.47 2.97 10.43 5.08 6.7 7.21.73 24.72 4.74 34.25 2.74 2.33 3.91 2.16 7.4 2.63 5.13-.1 10.26-.58 15.37-.94 1.17-9.41-1.21-24.1 1.73-32.23.91-2.51 4.31-4.66 6.57-5.99 7.4-4.39 16.12-6.84 23.88-10.65 8.18-4.02 15.66-9.18 23.91-13.06 10.8 7.16 20.61 15.79 31.42 23.02 6.91-4.59 12.59-9.34 17.77-15.83-5.51-9.01-14.11-16.02-19.08-25.51-1.69-3.23-2.48-6.03-1.75-9.69 1.17-5.9 6.77-13.6 9.32-19.33 3.37-7.59 5.85-15.49 8.32-23.41 10.71-5.29 23.03-5.55 34.73-6.56.63-7.23.46-14.55.48-21.809-8.97-1.166-25.59-1.502-32.84-6.769-5.04-3.657-23.56-48.699-25.1-56.026 2.08-10.623 17.61-23.035 25.24-30.586-5.26-7.242-12.13-13.277-18.96-18.998-10.95 8.08-18.64 18.623-30.59 25.882-11.27-5.295-41.95-18.005-50.22-24.634-5.5-4.403-4.58-30.217-5.25-38.207-7.6-.32-15.14-.259-22.74-.117-1.67 9.346-.26 24.156-5.34 32.088-3.98 6.216-37.57 22.491-45.52 24.119-14.13 2.893-12.65-14.81-24.65-22.761-4.61-3.054-11.03-5.834-16.65-4.306-7.13 1.941-9.5 9.189-12.9 14.898-1.89 3.166-4 5.744-7.77 6.521-3.04.627-5.39.224-8.05-1.421-1.06-2.324-.96-2.406-.37-4.911 2.79-2.976 6.43-5.876 8.79-9.135 3.35-4.64 4.57-11.482 10-14.334 6.68-3.514 19.33-2.764 26.25-.379 12.31 4.241 17.77 15.435 23.33 26.211 13.29-6.654 25.84-13.946 39.6-19.687.36-8.945-.06-19.021 2.54-27.618 1.68-5.55 3.58-7.468 8.65-10.163M997.661 956.386c2.274-.078 4.559-.142 6.829-.035a53.82 53.82 0 0 1 37.82 17.928c15.76 17.416 16.54 38.091 15.56 60.401-29.42.9-59.038.26-88.487.29 1.839 5.04 3.633 10.11 6.695 14.58 5.079 7.41 12.34 12.8 21.311 14.3 14.501 2.42 26.161-3.49 37.491-11.63l7.19 7.09c3.73 3.42 7.83 6.49 11.76 9.66a90 90 0 0 1-1.24 1.61c-9.55 12.31-22.23 18.39-37.54 20.19-18.064 2.13-36-.98-50.496-12.57-14.33-11.45-21.378-27.67-23.274-45.61-2.082-19.71.963-39.473 13.917-55.125 11.057-13.358 25.508-19.379 42.464-21.079"/><path fill="#FAFAF9" d="M999.229 984.373c7.241.464 13.701 1.538 19.891 5.695 8.19 5.503 10.89 13.412 12.8 22.562l-28.17-.1c-11.57-.2-23.182.02-34.756.07 2.246-5.67 4.512-11.13 8.169-16.066 5.686-7.685 12.816-10.85 22.066-12.161"/><path fill="#2F2F2F" d="M1173.06 975.504a195 195 0 0 1 4.24-4.867c8.17-9.016 18.55-13.172 30.59-13.647 11.85-.469 23.54 2.207 32.23 10.736 6.82 6.693 10.84 15.908 12.94 25.117 4.96 21.677 2.31 70.887 2.12 95.357l-29.58-.05c-1.4-19.02-.32-38.69-.17-57.78.08-8.77.72-18.09-.9-26.74-.86-4.664-2.38-8.271-5.7-11.723-4.44-4.619-10.2-6.487-16.52-6.426-6.27.061-12.24 1.611-16.69 6.275-3 3.152-4.94 7.366-5.91 11.574-3.43 14.86-.87 45.72-.65 62.42l.13 22.75a1304 1304 0 0 0-30.23.05l.28-53.26c.04-9.91.78-20.39-.62-30.2-.67-4.66-1.74-10.01-5.05-13.584-4.26-4.608-11.27-6.095-17.29-6.283-5.91-.185-11.48 1.6-15.69 5.868-4.02 4.075-6.14 9.379-7.12 14.939-1.73 9.74-.72 20.99-.67 30.9a3533 3533 0 0 1 .04 51.07l-29 .15-.91-129.048 29.83.091.37 13.768c9.28-9.38 16.76-13.822 29.79-15.646 2.68-.094 5.43-.238 8.1-.057 13.96.945 23.25 8.047 32.04 18.246m-517.402-63.333c11.433.675 22.929.34 34.376.236 19.565 59.873 44.483 118.143 66.365 177.203a818 818 0 0 1-34.42-.23c-3.557-12.62-7.982-25.03-11.722-37.62l-16.293.22a2960 2960 0 0 0-56.765.31c-5.237 12.3-9.624 25.08-14.313 37.61a1550 1550 0 0 0-31.607-.73c8.988-23.71 16.888-47.97 25.548-71.82z"/><path fill="#FAFAF9" d="M672.164 946.634c10.779 25.154 18.873 52.468 27.866 78.356l-26.691.07-29.33-.09z"/><path fill="#2F2F2F" d="m1296.22 908.484 8.75.123a4518 4518 0 0 0 .02 61.746c10.43-8.379 20.11-13.75 33.95-13.794a53.56 53.56 0 0 1 39.43 16.987c13.17 13.898 18.81 34.064 18.21 52.874-.63 20.03-7.57 36.94-22.18 50.75-11.11 8.74-24.13 13.22-38.22 13.55-16.06.37-34.19-3.74-45.94-15.27-7.38-7.25-12.05-16.96-14.24-26.99-3.87-17.76-1.91-38.33-1.9-56.485l-.15-83.158z"/><path fill="#FAFAF9" d="M1325.19 985.152c5.99-.484 11.56-.946 17.4.969 9.02 2.96 15.75 9.518 19.74 18.049 5.14 10.98 6.31 25.38 1.98 36.8-3.7 9.78-10.22 15.01-19.5 19.19-7.18 2.17-14.68 2.89-21.82.16-6.66-2.55-12-7.95-14.9-14.42-4.97-11.1-5.12-33.06-.58-44.34 3.54-8.819 9.14-12.884 17.68-16.408"/><path fill="#2F2F2F" d="M1586.04 912.056c9.04-.256 18.11-.124 27.16-.115 7.18 21.984 16.57 43.681 25.16 65.146 14.71 36.783 29.53 73.813 42.67 111.193l-31.89-.25a548 548 0 0 0-14.23-37.89c-25.79-.55-51.66-.19-77.46-.18-4.32 9.13-9.44 30.15-16.56 36.15-1.67.27-5.58.62-6.81 1.9-.8.83-1.79 4.17-2.29 5.31-5.31 12.31-9.87 25.35-20.78 33.98-8.13 6.44-17.16 7.59-27.21 6.17-7.09-1.01-21.36-4.78-25.71-10.64.39-3.22 2.29-4.99 4.17-7.58 2.56-4.15 4.82-8.51 7.18-12.78 5.89 2.92 13.33 5.4 19.93 3.69 6.7-1.72 9.46-6.24 12.68-11.95a2368 2368 0 0 1-49.23-137.484 904 904 0 0 0 29.64-1.309c4.16 10.515 7.38 21.547 11.28 32.188a2884 2884 0 0 1 26.4 72.855 12351 12351 0 0 0 65.9-148.404"/><path fill="#FAFAF9" d="M1596.53 952.588c5.05 4.35 25.04 60.882 29.27 71.782-8.99.44-18.05.19-27.05.16l-30.94-.28c8.28-24.04 18.45-48.393 28.72-71.662"/><path fill="#2F2F2F" d="M1841.84 910.402c7.39.154 14.95.569 21.99 3.034 16.3 5.704 5.95 16.016 11.78 24.771.03.05 1.48 1.801 1.84 1.831 4.25.359 11.45-6.221 21.33-3.642 9.78 2.554 16.56 12.473 21.35 20.801a94.02 94.02 0 0 1 9.04 73.143c-3.98 14.18-13.01 33.36-26.6 40.37-8.96 4.62-15.76 3.41-24.79.36-.98 5.79-2.36 11.73-6.39 16.22-7.31 8.14-19.38 8.26-29.52 8.7-5.23-.68-10.85-.88-15.21-4.19-6.43-4.88-7.04-14.02-7.95-21.45-5.54 2.49-10.58 4.74-16.82 4.64-5.7-.09-10.72-2.04-14.66-6.22-9.94-10.56-8.39-26.96-8.33-40.36 9.17-6.5 19.72-11 29.58-16.38l-1.84-14.258c-11.98-5.178-20.42-10.688-29.61-20.037-.69-7.073-1.36-13.948-.15-21.023 1.19-6.971 4.07-13.628 10.19-17.589 8.76-5.667 19.02-3.223 28.51-1.45.94-6.8 1.02-15.667 5.76-21.038 4.94-5.593 13.61-5.715 20.5-6.233"/><path fill="#FAFAF9" d="M1919.57 981.842c6.04 13.975 3.06 31.078-.36 45.298-5.21-3.96-10.48-7.6-16.02-11.08-5.65-3.26-14.18-4.45-17.34-10.42.97-8.382 17.67-12.936 24.13-16.519 3.56-1.976 6.56-4.597 9.59-7.279m-123-37.533c6.48.405 12.75 2.079 19.05 3.561 4.78 6.45 8.7 13.356 12.56 20.384-6.61 5.562-12.14 11.723-17.43 18.521-5.91 1.777-23.15-8.898-28.79-11.669a127 127 0 0 1 4.54-16.818c1.98-5.861 4.37-11.114 10.07-13.979m13.71 77.531 1.64.48c5.41 6.6 11.04 12.08 17.73 17.37-2.54 5.49-5.03 12.05-8.48 17.01-4.9 7.03-10.71 8.02-18.59 9.44-2.44-.8-4.59-1.54-6.54-3.33-5.88-5.4-13.73-17.19-14.28-25.15 3.13-6.96 21.18-12.57 28.52-15.82m80.85-76.605c2.47.235 4.83.504 7.07 1.638 9.65 4.878 14.71 16.829 18.13 26.488-7.39 7.261-15.62 11.186-25.09 15.032-1.72.462-3.45.8-5.2 1.153-3.83-2.044-14.63-16.736-20.45-21.787 4.76-5.799 7.67-11.617 10.59-18.456 4.97-1.899 9.75-3.028 14.95-4.068m-53.17 97.625a585 585 0 0 0 20.35 1.08c2.94 4.84 5.74 10.03 7.6 15.4 2.04 5.87 3.27 12.77.21 18.51-2.34 4.4-5.57 5.33-10.03 6.87-7.35 1.23-16.53 2.45-23.21-1.69-3.32-2.06-5.27-5.24-5.9-9.07-1.84-11.04 5.12-22.31 10.98-31.1m45.78-24.2c12.72 3.11 23.25 9.36 32.72 18.3-4.82 10.17-9.88 18.57-18.88 25.66-7.01 3.34-12.99 1.85-20.38.77-2.78-7.96-6.27-15.43-10.31-22.83 6.73-6.41 11.88-14.11 16.85-21.9m-46.01-98.355c6.29-.353 15.49-.986 20.94 2.368 3.49 2.15 5.63 6.542 6.43 10.402.78 3.788 2.13 7.24 3.5 10.843-3.07 6.764-6.36 14.863-11.66 20.175l-1.7-.116c-5.85-1.26-13.05.564-18.98 1.381-3.83-7.464-7.88-14.56-12.47-21.586 1.34-5.331.72-13.642 3.53-18.25 2.51-4.111 6.06-4.366 10.41-5.217m3.87 52.888c6.99-.357 12.38-.217 18.71 3.201a33.26 33.26 0 0 1 16 20.061c2.16 7.605 1.34 15.675-2.56 22.585-4.98 8.85-12.93 13.03-22.3 15.78-7.05.29-12.43-.01-18.76-3.52a34 34 0 0 1-15.94-20.28c-2.1-7.63-.79-15.382 3.16-22.19 4.87-8.401 12.42-13.353 21.69-15.637"/><path fill="#2F2F2F" d="M383.923 596.322c26.248-4.514 45.862 19.901 68.231 29.561 9.725 4.2 20.599 6.712 30.74 2.77 1.623-.632.66-.581 2.691.252 1.064 1.67 2.102 3.127 2.325 5.159.663 6.062-3.406 13.698-6.697 18.503-6.543 9.553-13.919 12.654-24.759 14.797-2.564 15.769-9.993 30.334-11.826 46.128-11.948 11.988-23.23 27.711-36.842 37.528-5.453-2.835-21.811-13.799-27.407-12.725-2.439 4.726.544 13.921.216 19.389-.242 4.017-1.583 8.275-2.581 12.174 23.666 34.694 29.278 80.394 31.56 121.425 18.574 14.319 39.225 24.663 58.843 37.344.973 4.012 2.184 7.983 3.299 11.958 7.436 3.379 14.198 5.008 22.234 5.898 14.032-22.674 21.718-49.051 35.405-72.007-2.483-7.883-3.116-15.454-1.016-23.544a36.48 36.48 0 0 1 18.231-23.246c8.653-4.626 18.595-5.601 27.919-2.471 9.937 3.337 18.814 10.773 23.247 20.328 4.672 10.068 4.335 22.095-.321 32.106-6.971 14.987-16.985 13.345-23.269 21.752-10.464 13.997-26.866 52.682-33.734 70.339.944 2.908 1.897 5.893 2.377 8.918 1.158 7.287-3.973 13.984-9.084 18.602-6.219 5.62-14.645 8.88-20.45 14.8-16.203 16.54-31.418 51.13-46.528 70.92-2.011 2.63-3.9 5.66-7.265 6.11-2.359-1.51-3.111-1.87-4.057-4.67-3.155-9.32 20.12-75.04 26.762-86.536-.175-.117-.345-.241-.525-.351-7.049-4.315-6.019-7.771-10.827-11.908-5.534-4.76-13.141-8.582-19.338-12.509-2.737 2.434-5.715 4.618-8.603 6.87-19.993-7.18-38.315-17.687-56.874-27.862-1.369 22.594-.553 45.005.124 67.606.404 13.48-.236 27.12.624 40.57 1.143 17.88 4.582 36.5 8.471 53.98 4.763 21.41 15.552 43.53 18.314 64.57 1.928 14.69-.964 30.56-.982 45.42-.03 25.14 1.785 50.44 3.599 75.5l3.531 47.85c.906 11.76 3.206 22.77 1.085 34.49a63 63 0 0 0 2.89 3.14c13.347 13.3 32.243 3.18 47.971 3.93 4.63.22 8.814 1.9 11.88 5.46 2.075 2.41 4.659 6.48 3.981 9.81-.7 3.44-4.135 5.95-6.966 7.63-5.642 3.36-12.018 6.36-18.216 8.5-10.769 3.72-69.582 19.8-77.697 16.79-3.171-1.18-6.883-15.19-8.312-19.07-23.019-1.37-47.414.9-70.269 3.85-10.201 1.32-20.866 3.66-31.125 4-2.49.09-4.842-.05-7.097-1.2-1.53-.77-1.038-.67-1.542-2.59.677-1.3.77-1.63 1.813-2.86 5.782-6.81 42.227-8.99 52.703-10.28 17.751-1.29 35.416-2.5 53.209-3.13l-.138-13.1c-3.033-.03-6.405.16-9.4-.29-2.569-.39-4.427-1.11-5.758-3.46-4.053-7.15-33.588-148.33-34.684-162.35-1.081-13.83.401-26.79 3.941-40.15-16.792-18.31-25.802-41.72-31.99-65.41-4.492 29.75-9.078 61.76-20.367 89.77-5.846 14.5-17.237 25.03-25.389 38.08-18.173 29.11-35.405 58.81-53.482 87.99-5.613 9.06-10.543 20.08-17.273 28.23-2.514 3.05-3.82 3.54-7.69 3.72-.514.03-1.027.04-1.541.06-.068.26-.17.53-.205.8-.399 3.21 1.755 8.34 2.704 11.45 8.913 29.26 30.822 22.89 39.571 38.31 2.047 3.61 1.287 6.56.333 10.35l-.312 1.2c1.679 3.33 52.157 12.27 60.533 21.37.083 2.76.134 3.15-1.271 5.5-3.234 1.48-4.716 1.36-8.112.33-24.303-7.34-49.615-15.95-75.147-17.72-25.768-1.8-57.283 3.88-82.766 8-11.494 1.87-32.319 7.89-43.192 6.38-2.064-1.44-2.217-1.57-3.101-3.92l1.194-2.36c13.199-10.24 77.369-15.49 97.562-17.6-8.293-6.24-17.047-12.04-24.469-19.32-.132-1.37-.135-3.14-.938-4.33-2.88-4.26-24.661-16.96-30.857-22.65 5.238-11.61 14.663-20.51 20.475-31.74-.718-2.62-2.062-6.37-1.589-9.07 1.575-8.97 9.564-24.21 13.156-33.55a7702 7702 0 0 1 29.551-76.9c7.55-19.26 14.643-38.91 25.281-56.75 4.604-7.71 11.58-13.76 18.585-19.22.03-35.17 3.85-70.51 6.898-105.51-5.37-5.67-10.005-11.61-14.613-17.92l34.805-161.072c6.843-30.696 12.488-62.847 23.903-92.212 8.505-21.878 20.668-44.24 42.979-54.112a107 107 0 0 1 4.828-7.213c6.398-8.713 13.775-16.589 24.885-18.282.324-8.962.583-17.991.125-26.951-.975-19.088-6.171-38.436 6.143-55.261 11.106-15.175 29.231-19.887 46.766-22.885"/><path fill="#FAFAF9" d="M536.941 879.222c6.794 4.019 21.911 8.519 25.952 15.017.949 1.525-.184 3.195-.67 4.781-8.498-4.083-18.727-6.388-25.99-12.423-1.191-3.238-.35-4.172.708-7.375m-47.129 124.028c4.159 1.33 8.195 3.85 12.077 5.86l-24.569 38.57-6.194 8.84c4.85-17.97 11.468-36.11 18.686-53.27"/><path fill="#828181" d="M323.197 717.601c1.787.292 1.347.161 3.013.651 12.485 3.671 34.465 14.715 40.447 26.823.195.395.366.801.554 1.2 1.96 4.148 2.778 6.881 2.518 11.498l-.891.738-1.609-1.186c-12.108-14.878-27.978-27.719-47.34-31.302-2.507-.464-1.44.199-3.025-1.485 1.163-2.899 4.053-4.895 6.333-6.937"/><path fill="#FAFAF9" d="M446.278 928.615c5.771.832 10.974 6.297 15.188 10.063-4.183 11.991-8.846 19.835-18.057 28.56-6.085-1.809-11.851-4.305-17.691-6.768 4.681-12.014 11.895-22.383 20.56-31.855"/><path fill="#9F9E9E" d="M530.876 894.962c8.407 4.823 17.512 8.606 26.315 12.654-7.794 16.797-15.408 33.712-24.139 50.048-1.979-2.927-4.045-5.826-5.814-8.886-.982-1.698-1.976-3.883-3.707-4.964-4.823-3.011-11.454-.31-16.586.883z"/><path fill="#FAFAF9" d="M470.932 949.802c20.327 9.336 27.973 3.951 48.565 6.045l1.997.212c4.448 8.875 7.776 18.105 11.997 27.063-4.717 4.636-9.739 8.65-14.963 12.695l-6.625 4.203c-17.398-3.477-24.94-12.939-37.562-23.813-4.351-3.748-9.522-6.873-14.337-9.984 4.203-5.132 7.505-10.757 10.928-16.421m-60.27-305.469c12.879 6.487 22.902 15.471 36.732 20.674-10.301 32.98-15.856 49.988-42.536 74.184-7.536-3.938-24.15-18.668-30.981-18.145-1.636 2.892-.942 5.85-.758 9.122l-1.032.762-2.695-1.475c-10.036-8.495-19.807-14.665-31.985-19.617a492 492 0 0 1 11.587-.903c7.081-.433 11.468.137 16.892 4.933 1.426-5.295 1.397-21.572 4.701-24.846 2.093-.199 4.773-.196 6.758-.826 2.482-.787 2.53-2.004 3.361-4.203l-1.717-1.399c-.887-.712-1.79-1.404-2.668-2.127-3.799-3.131-7.421-7.08-7.619-12.299-.164-4.318 2.165-7.14 4.948-10.044 2.297-.836 3.355-1.516 5.754-.377 6.069 2.878 9.765 11.183 12.71 16.84 14.279-8.538 14.294-15.327 18.548-30.254"/><path fill="#828181" d="M224.768 1060.84c20.061 14.7 38.946 20.97 63.377 24.44-.645 36.17-10.409 100.09-28.015 131.04-7.992 14.05-19.965 25.9-28.365 39.89-20.47 34.09-40.48 68.35-61.361 102.22-7.456-.59-14.464-2.08-21.647-4.09-5.918-2.05-11.741-4.16-17.151-7.35 18.639-43.07 49.867-146.85 76.802-176.96 1.25 8.71 3.944 20.89 7.622 28.84 1.989 4.29 5.582 9.61 10.511 10.81 2.46.61 3.198.02 5.001-1.35.892-4.77-3.868-10.99-5.806-15.36-3.93-8.87-5.365-18.82-6.141-28.41-2.755-34.03 1.786-69.8 5.173-103.72m149.73-4c1.661 1.41 1.611 3.47 1.748 5.57 1.567 24.02 5.591 49.63 12.255 72.79 4.657 16.19 12.153 31.99 13.699 48.91 1.583 17.32-1.796 35.66-1.24 53.23a1937 1937 0 0 0 10.217 135.74c-15.054 6.05-27.165 8.81-43.397 9.33a2881 2881 0 0 0-15.452-71.93c-9.697-37.26-20.379-75.57-15.907-114.33 5.546 7.43 10.033 15.14 14.665 23.13 2.02 3.48 4.685 10.43 8.945 10.88 1.998.21 2.769-.17 4.118-1.5 3.768-12.75-25.044-44.41-32.445-54.83a159.4 159.4 0 0 1-12.899-21.83c-10.369-21.4-15.345-44.14-17.241-67.74 27.286-2.36 50.332-12.25 72.934-27.42m-69.875-319.462 1.041-.079c16.361-1.146 29.184 4.345 41.246 15.007 37.631 33.264 48.306 82.333 51.078 130.643-7.233-5.151-25.049-23.626-31.591-25.184-1.502-.358-1.809.351-2.951 1.161-.343 1.557-.526 2.877-.231 4.468 3.139 16.924 59.293 50.492 74.422 60.172-9.231 10.149-16.36 18.391-21.499 31.313-11.276-5.504-22.667-10.928-33.581-17.129-6.391-3.63-12.999-7.981-17.862-13.561-17.334-19.889-29.398-63.9-30.755-90.126-.58-11.206 2.201-25.157-1.079-35.808-.929-3.018-2.073-4.554-4.838-6.007l-1.993 1.323c-7.416 13.342-1.794 53.704.702 69.087-15.323-13.044-25.143-28.666-29.879-48.241-1.583-6.548-2.656-14.341-6.06-20.218-1.529-2.642-2.914-4.288-5.866-5.116l-1.036.912c-2.417 6.499-1.701 11.631-.278 18.182 8.985 30.687 20.377 53.064 48.221 70.531 8.611 26.119 18.257 53.225 42.931 68.011-1.874 31.513.395 63.381 1.171 94.911-22.785 20.16-59.789 33.3-90.208 31.31-29.174-1.91-55.856-18.42-74.881-39.92 8.065-40.741 17.821-81.225 26.624-121.82 8.997-41.492 17.73-96.818 35.033-134.739 6.425-14.079 16.823-33.453 32.119-39.083"/><path fill="#2F2F2F" d="M232.483 1006.54c.266.09.534.17.796.27.4.14.79.31 1.189.46 7.533 2.77 17.424 21.12 29.54 26.89 7.678 3.67 17.221 2.93 25.307 5.47 2.517.79 3.145 1.83 4.104 4.14-.485 3.14-1.602 4.26-3.742 6.4-14.75 1.49-28.423-4.56-40.173-12.99-6.878-4.94-19.694-14.82-20.12-23.88-.167-3.55.995-4.24 3.099-6.76m27.758-103.959c1.11.058 2.798.012 3.913.309 1.933.516 2.639 1.306 3.577 3.039 4.832 8.931 6.21 31.356 8.847 42.447 3.108 13.075 8.184 26.112 13.456 38.467 3.35 7.851 11.233 20.127 8.705 28.597-1.547-.04-4.113.11-5.565-.6-4.481-2.19-8.491-11.4-10.515-15.825-7.699-16.839-29.21-78.14-22.418-96.434m54.448 3.098 3.602 1.535c3.8 4.557 13.468 69.674 17.053 82.206 2.437 8.521 5.228 17.14 9.317 25.03 4.065 7.84 9.135 15.36 12.375 23.58-.047 3.33-1.051 5.01-2.712 7.74-2.436-1.53-4.831-3.02-6.81-5.14-20.915-22.44-28.842-71.379-33.59-101.416-1.377-8.717-3.516-18.428-2.977-27.244.206-3.378 1.287-4.097 3.742-6.291"/></svg>