<svg xmlns="http://www.w3.org/2000/svg" style="display:block" viewBox="0 0 2048 2048"><path fill="#FEFEFE" d="M0 0h2048v2048H0z"/><path fill="#252557" d="M913.368 1818.79c5.039.37 9.897 1.57 14.819 2.66-.137 5.17-.072 10.24-1.403 15.28-5.488-.92-10.961-1.51-16.494-2.07zm226.042-3.52c1.71-.33 2.59-.24 4.26.26.77 1.54 1.58 3.13 2.11 4.78.78 2.44.49 6.22-1.03 8.39-2.12 3.01-5.32 2.8-8.68 3.46-2.18.09-3.77.21-5.82-.61-2.68-3.49-2.01-9.8-2.18-14.11zm184.88-1481.861c4.85 2.951 10.03 5.096 15.22 7.363l-7.41 13.765c-5.44-2.17-10.48-4.801-15.63-7.573 2.45-4.621 5.12-9.08 7.82-13.555m180.87 1310.251c4.32 1.77 8.79 7.74 12.03 11.09-4.1 3.41-8.47 6.59-12.7 9.85l-.95.08c-3.98-2.43-7.01-6-10.23-9.33 3.73-4.11 7.84-7.86 11.85-11.69m-191.52 120.27.79-.1c3.37 2.43 5.43 9.22 7.26 13.09-4.49 2.66-9.29 4.74-14.01 6.95l-1.73-.81c-2.82-4.45-4.3-9.49-6.02-14.44 4.64-1.35 9.17-3.07 13.71-4.69m-29.98-1449.278 14.52 7.957c-2.42 4.561-4.28 9.295-6.18 14.089l-15.15-7.427c1.7-5.453 3.61-9.85 6.81-14.619m-197.8 1506.778c4.66-.4 9.38-.45 14.07-.62.88 4.95 2.13 9.92 1.58 14.95l-1.54 1.22c-5.2-.04-10.36.41-15.54.82l-.11-1.98c-.23-4.37-1.47-11.05 1.54-14.39m269.21-77.51c3.32 1.5 6.22 10.13 7.74 13.41l-13.31 7.93c-3.86-1.86-6.64-9.89-8.51-13.66 4.39-3 9.36-5.25 14.08-7.68m-732.513-33.64c5.414 2.77 10.422 5.77 15.461 9.17l-6.64 12.15-.977.29c-5.019-1.33-9.686-4.78-14.127-7.42 1.832-4.84 4.103-9.5 6.283-14.19m-191.846-172.46c.3.01.605-.02.899.04 4.693.96 9.68 8.92 12.531 12.58-3.91 2.72-7.537 5.81-11.218 8.83-4.542-2.14-9.181-10.01-12.155-14 3.078-2.74 6.597-5.05 9.943-7.45m607.149 285.94 17.18-.13-.29 16.14c-5.52.35-11.21.15-16.75.18zM758.57 315.92l2.071.201c4.951 3.273 5.812 10.152 7.215 15.535-3.701 2.407-7.824 4.238-11.775 6.2a873 873 0 0 0-9.119-15.049zm634.27 1407.12c3.97 4.1 6.67 8.88 9.56 13.74l-13.5 8.7c-3.29-2.01-6.68-9.53-9.11-12.94 4.26-3.3 8.66-6.39 13.05-9.5m11.29-1345.476c5.17 2.84 9.45 6.139 14 9.852l-8.1 12.406c-4.81-3.135-10.2-5.744-15.23-8.541zM374.744 659.697c5.155 2.714 10.147 5.954 15.165 8.926-2.561 4.014-4.699 8.162-6.843 12.405-5.898-1.761-11.015-4.498-16.417-7.386 2.381-4.84 5.255-9.368 8.095-13.945m365.16 1112.863c5.432 1.64 10.868 4.13 16.185 6.16l-5.197 14.56c-5.567-2.12-11.266-3.79-16.968-5.51 1.868-5.11 3.975-10.15 5.98-15.21m83.246 28.34 17.393 5.01-3.9 14.72c-4.615.47-11.682-2.58-16.171-3.86zm541.1-1447.575a1055 1055 0 0 1 14.94 8.228c-2.14 5.303-4.95 9.958-7.92 14.824-4.61-3.355-9.71-6.297-14.51-9.399 3.06-4.254 5.2-8.959 7.49-13.653m183.43 142.345c4.53 3.434 8.57 7.487 12.7 11.38a876 876 0 0 1-11.32 11.15c-5.36-3.265-8.31-8.139-11.88-13.145 3.35-3.328 6.9-6.34 10.5-9.385m-274.67 1283.22c.16.04.34.03.49.1 3.53 1.75 4.88 10.44 5.93 14.28-4.61 2.4-9.34 4.24-14.18 6.1l-2.35-.93c-2.42-3.99-3.14-8.76-4.2-13.27zm-783.433-178.2c4.3 4.24 8.186 9.2 12.184 13.74-2.865 3.88-6.15 7.37-9.392 10.93-4.69-3.81-8.951-8.65-13.233-12.92 3.72-3.71 7.047-7.75 10.441-11.75m209.456 152.36c5.705 2.23 10.886 4.88 16.23 7.86-2.708 4.26-4.326 8.91-6.121 13.59-5.836-2.23-11.582-4.31-16.927-7.6 2.566-4.55 4.753-9.06 6.818-13.85m735.467-54.2c3.1 4.24 5.31 8.93 7.66 13.61-4.89 2.87-9.32 6.65-13.8 10.11-3.38-4.5-6.01-9.49-8.77-14.38 5.25-2.81 10.04-5.92 14.91-9.34m-973.513-127.89c4.699 2.61 9.142 9.32 12.61 13.44-3.444 3.18-7.311 5.94-11.028 8.79-4.762-2.41-9.331-9.14-12.918-13.23 3.54-3.27 7.502-6.08 11.336-9m320.941 216.44 16.167 5.73c-1.632 5.04-2.869 10.26-4.25 15.38l-17.615-5.8c2.682-4.78 4.065-10.11 5.698-15.31m448.422 5.83 1.32.82a417 417 0 0 1 3.37 14.43c-4.87 1.7-9.87 3.1-14.81 4.59l-1.57-.64c-2.34-4.59-2.62-10.33-3.39-15.39zm-43.48 12.08 1.31 1.16c1.7 4.75 3.38 8.64 1.57 13.6-3.06 3.29-9.26 4.03-13.53 5.14l-1.08-.3c-2.23-3.07-2.42-11.84-3.22-15.83 4.94-1.41 9.96-2.56 14.95-3.77m-318.436 6.29c5.693.72 11.337 2.12 16.951 3.31-1.48 5.18-2.547 10.38-3.606 15.66-5.739-.65-11.475-2.11-17.131-3.28 1.068-5.28 2.432-10.48 3.786-15.69M1513.96 461.608c4.9 3.195 8.91 7.645 13.05 11.747l-10.24 10.805c-.92.303-1.82.093-2.77.017-4.17-3.109-6.89-7.342-9.92-11.509zM1471.3 1672.03c3.08 4.88 6.74 9.35 10.3 13.88a914 914 0 0 0-14.15 8.85l-1.66-.27c-3.46-3.51-5.4-7.78-7.65-12.1zm-812.587 59.88a426 426 0 0 0 15.549 8.29c-1.875 5.05-4.486 9.87-6.858 14.7-5.559-2.82-10.561-5.92-15.652-9.52 2.627-4.34 4.766-8.9 6.961-13.47m58.829-1396.971c.318.037.65.009.953.113 3.173 1.09 7.673 11.334 9.557 14.714l-12.623 7.325-1.418-.31a500 500 0 0 0-8.608-14.59c3.851-2.878 7.905-5.016 12.139-7.252M1696.44 1389.99c5.08 3.23 10.47 6.11 15.68 9.14-2.04 4.85-4.28 9.59-6.51 14.35-5.14-3.63-10.79-6.62-16.24-9.75 2.14-4.73 4.53-9.22 7.07-13.74M587.687 1686.48c5.88 2.57 9.988 6.76 14.396 11.24-2.581 4.1-5.387 8.07-8.104 12.07-5.202-3.1-10.129-7.22-15.01-10.84zm-34.728-26.46c4.579 3.86 9.116 7.42 14.116 10.73-2.812 4.58-5.881 8.76-9.16 13-5.021-3.41-9.603-7.36-14.253-11.25 2.837-4.47 5.897-8.43 9.297-12.48M1443.05 402.772c5.12 3.327 9.76 6.992 14.46 10.874l-10.75 11.79c-4.88-2.185-9.37-6.708-13.52-10.096 3.14-4.294 6.49-8.416 9.81-12.568m165.11 161.936c4.25 2.365 8.56 10.428 10.97 14.632-3.57 3.49-7.29 6.171-11.41 8.93-4.95-2.079-8.48-9.597-10.77-14.134 3.99-2.813 7.56-6.195 11.21-9.428m-129.79-134.185c4.65 3.244 9.03 8.26 13.18 12.196-2.75 4.421-5.98 8.585-9.04 12.797-5.21-2.11-9.01-7.366-12.67-11.483 2.53-4.7 5.57-9.074 8.53-13.51m157.49 174.259c4.43 3.303 7.82 10.07 10.81 14.695-4.43 2.921-8.55 6.214-12.73 9.482-3.72-3.008-7.3-9.136-10.76-12.855 3.93-4.028 8.44-7.621 12.68-11.322m41.03 825.118c4.62 3.46 9.33 5.94 14.49 8.49l-8.41 15.67c-4.36-3.72-9.7-6.36-14.65-9.23 2.58-5.2 5.46-10.03 8.57-14.93M637.953 379.767c4.645 3.516 8.153 10.289 10.997 15.319-3.664 2.562-7.591 4.794-11.413 7.116l-1.912-.048c-3.918-3.948-6.757-8.957-9.793-13.598 3.861-3.457 7.717-6.101 12.121-8.789M406.837 1501.28l10.325 13.84c-4.063 3.74-8.172 6.86-12.717 9.96-3.355-5.12-7.186-10.21-11.581-14.48 4.484-3.6 8.98-6.48 13.973-9.32m-44.43-75.36c4.347 2.59 7.808 10.28 9.807 14.89-3.842 2.9-7.885 5.59-11.818 8.37-5.158-2-8.209-10.83-10.488-15.56 4.313-2.3 8.384-5.06 12.499-7.7M677.33 356.808l2.341.484c3.649 4.354 6.203 9.585 8.971 14.528-3.996 2.676-8.036 4.692-12.382 6.697-.902.339-.233.154-2.079-.117-3.865-4.659-6.202-10.263-8.791-15.687zm902.7 172.034c4.23 4.063 8.12 8.685 11.88 13.187-3.88 3.294-7.41 6.805-10.96 10.433-5.11-.762-9.87-8.56-13.02-12.397 3.75-4.468 7.27-7.902 12.1-11.223m82.16 117.998c3.46 2.145 7.93 12.154 10.21 16.021l-14.19 5.199-1.2-.051c-4.44-2.317-7-8.141-9.22-12.418 4.61-3.269 9.48-5.987 14.4-8.751m-1142.6 984.73c5.361 3.92 10.447 8.45 15.608 12.64-2.865 3.69-6.402 6.83-9.754 10.07-.611.41-1.681.63-2.387.85-4.714-2.54-8.419-7.33-12.096-11.18zM398.277 618.421c6.013 2.54 10.564 6.57 15.371 10.842-2.21 4.327-4.61 8.584-6.913 12.864-5.294-3.11-10.881-5.827-16.324-8.676 2.35-5.148 5.145-10.073 7.866-15.03M344.78 1386.87l.867.07c3.186 2.46 6.027 11.89 7.742 15.91-4.361 2.81-8.915 5.4-13.358 8.09-3.219-5.35-6.062-11.01-9.055-16.49a428 428 0 0 1 13.804-7.58m39.123 77.42c3.77 4.14 6.76 10.41 9.747 15.24l-13.249 9.41c-4.36-4.47-7.138-11.04-10.029-16.51zm71.565-923.781c5.755 1.62 11.087 7.628 15.263 11.731l-9.744 11.956c-5.683-3.102-10.01-7.278-14.416-11.909zm32.261-36.035c5.896 1.997 10.868 8.648 15.01 13.089-3.129 3.519-6.657 6.727-10.037 10.005l-1.444.497c-4.603-2.286-9.224-8.011-12.941-11.687zM1628.1 1507.36c6.06 1.51 11.83 7.56 16.4 11.61a1200 1200 0 0 0-8.11 11.35l-.65.19c-6.11-1.49-10.99-6.42-15.5-10.58 2.85-4.06 5.34-8.3 7.86-12.57m-55.13 68.48 13.83 12.96c-3.79 3.77-7.38 7.84-11.04 11.74-4.06-1.13-10.88-9.07-14.2-12.2 3.86-4.11 7.61-8.33 11.41-12.5M600.074 406.86c3.635 2.433 7.675 10.05 10.287 13.845-4.317 3.729-8.701 6.868-13.485 9.965-3.996-4.525-7.684-9.407-11.466-14.117 4.598-3.795 9.532-6.695 14.664-9.693m-77.531 62.738c6.135 2.651 10.702 8.182 15.38 12.817-3.358 3.599-7.166 6.532-11.02 9.568-.905.087-1.466.176-2.412.091-5.163-.462-9.131-7.54-11.817-11.383 3.545-3.418 6.661-7.356 9.869-11.093m-96.66 107.972c5.556 2.873 10.458 6.814 15.475 10.525l-8.16 13.289c-6.857-1.634-10.928-5.759-15.861-10.462 2.568-4.662 5.529-8.977 8.546-13.352m135.364-140.584a559 559 0 0 1 12.066 14.054c-4.021 3.843-7.932 6.943-12.678 9.882-4.516-4.161-8.574-8.372-12.502-13.094 3.97-4.696 7.903-7.7 13.114-10.842M1602.09 1543.56c5.74 2.45 11.06 7.48 15.77 11.48a523 523 0 0 0-11.87 12.43c-3.59-1-11.83-9.85-15.41-12.63zm-60.97 65.14c5.15 2.96 9.34 9.43 12.89 14.12l-12.41 10.92c-.15.01-.29.04-.43.02-3.21-.49-10.43-10.41-12.74-13.1 4.55-3.51 8.58-7.94 12.69-11.96m112.09-140.07 16.47 10.62c-3.25 5.28-6.02 10.27-8.27 16.06-5.9-4.5-11.84-8.65-18.16-12.55 3.37-4.67 6.64-9.42 9.96-14.13"/><path fill="#252557" d="M976.342 1150.41c.884-.06 1.771-.1 2.658-.11 33.55-.49 64.33 13.63 87.98 36.94 17.23 16.98 28.33 37.43 33.64 61.04 5.08 22.64 2.65 54.59 2.69 78.52a12054 12054 0 0 0 .23 135.1l31.1-.11c.34-10.38-1.83-24.28 3.4-33.53 2.6-4.59 7.2-7.46 12.26-8.65 6.47-1.54 13.99-.53 19.59 3.15 4.83 3.18 7.2 7.76 8.25 13.34 2.68 14.34.12 31.83-.11 46.54-.93 59.24.38 100.43-35.4 151.82a207.33 207.33 0 0 1-132.26 86.23l-.14 142.39 123.39-.01c19.4.02 41-1.74 60.16.89 5.95.81 11.34 2.4 15.92 6.43 5.19 4.56 7.99 11.32 8.25 18.15.28 7.47-2.49 16.7-7.81 22.11-3.82 3.88-8.94 6.2-14.28 7.06-20.03 3.24-53.55 1.55-74.63 1.54l-134.98.01c-53.757-.5-107.532.69-161.298.49-16.729-.07-42.943 1.7-58.443-.39-5.646-.77-11.324-2.7-15.595-6.6-5.426-4.95-7.385-12.2-7.715-19.34-.365-7.89 1.855-16.06 7.458-21.83 3.423-3.53 7.776-6 12.638-6.81 19.126-3.18 41.43-1.23 60.857-1.33l129.799-.42a8001 8001 0 0 0 .135-140.74c-29.263-5.14-58.6-14.64-82.932-32.14-48.587-34.93-79.112-82.04-88.479-141.41-3.331-21.12-1.784-42.67-1.987-63.96-.144-15.24-1.709-31.94.312-47.02.484-3.61 1.242-6.67 3.497-9.57 4.989-6.43 12.711-9.22 20.585-9.93 5.152-.46 11.537-.39 15.514 3.44 5.133 4.95 2.566 30.23 2.527 38.26l34.662.38a11123 11123 0 0 1 .213-139.96c.086-23.65-3.168-50.09 1.914-73.12 4.388-19.88 14.82-39.36 28.132-54.7 22.749-26.22 54.086-39.94 88.298-42.15"/><path fill="#FEFEFE" d="M969.917 1723.14c8.207.23 16.432-.04 24.64-.2.856 46.57.265 93.3-.107 139.88-7.947.45-16.092.08-24.061.06-.636-46.56-.421-93.17-.472-139.74m181.333-288.18c4.03-.02 6.39.02 9.68 2.37 1.81 3.33 1.97 7.01 2.03 10.75.19 12.3-.3 24.62-.27 36.93.03 17.11.6 33.98-1.1 51.07a191.1 191.1 0 0 1-53.78 114.73c-34.28 34.82-80.68 56.13-129.809 56.36-45.516.23-91.714-20.19-123.826-52.15-60.74-60.45-57.311-118.28-57.284-197.27l-.058-3.29c-.111-7.95.164-13.73 6.043-19.78.933.43 2.013.62 2.799 1.28 2.317 1.95 1.626 16.2 1.621 19.33-.123 69.5-4.142 122.28 43.75 179.27a166.37 166.37 0 0 0 113.837 59.84 166.3 166.3 0 0 0 122.077-40.02 189.3 189.3 0 0 0 43.89-55.72c29.55-57.99 15.27-102.25 20.29-162.36zm-377.473 444.4c24.974-.89 50.221-.03 75.223.04l119.469-.01 182.581.33c11.43.07 22.91-.75 34.3-.56 3.83.06 7.97.61 11.36 2.53 2.71 1.54 4.92 4.08 5.53 7.2.79 4.12-1.55 8.22-4.09 11.25-2.6 3.1-5.25 3.13-9 3.46l-255.967-.11-103.126.38c-17.76.1-36.04 1.14-53.755.2-4.379-.23-9.145-1.12-12.82-3.66-2.502-1.72-4.416-4.25-4.549-7.4-.158-3.73 2.221-8.37 4.754-11.01 2.435-2.53 6.781-2.34 10.09-2.64m195.204-711.99c18.75-2.23 36.629 1.06 53.839 8.67 30.29 13.39 48.3 37.21 60.11 67.46-29.78.82-59.64.36-89.43.32a8451 8451 0 0 1-115.456-.17c4.776-13.04 11.861-25.93 20.165-37.05 17.89-23.94 41.672-35.18 70.772-39.23"/><path fill="#FEFEFE" d="m873.889 1515.33 212.871-.08c-2.71 28.48-11.94 51.32-31.29 72.48-19.85 19.22-44.72 31.82-72.758 32.34a107.3 107.3 0 0 1-75.579-29.61c-19.373-18.73-32.889-48.08-33.244-75.13"/><path fill="#FEFEFE" d="M823.818 1476.1c11.182-.15 22.406.12 33.591.2-.513 45.16-.811 83 31.373 118.9a122.6 122.6 0 0 0 85.498 41.27c30.35 1.48 64.12-10.02 86.59-30.59a131.36 131.36 0 0 0 41.79-83.68c1.44-14.58.75-29.65 1.31-44.32l30.63.14-.03 40.46c-2.23 42.06-17.24 83.77-47.71 113.74-28.65 28.19-68.9 47.24-109.505 46.72-40.401-.53-79.376-18.98-107.207-47.9-44.089-45.81-47.686-94.71-46.33-154.94"/><path fill="#FEFEFE" d="m873.748 1260.92 213.432.24-.12 12.3-59.2-.16-.16 43.9 59.62.2-.07 14.59c-20.04.26-40.1.1-60.15.13l-.03 43.07c19.88-.18 39.9-.48 59.76.44l-.08 14.77-59.35-.04.09 43.58c19.84.08 39.72-.08 59.54 1.02l-.04 13.49-59.99.03v42.5c10.6-.04 52.56-2.07 59.15 1.52 1.28.7 1.38 2.14 1.85 3.43l-1.56 2.38.76-.76-1.54 1.99a9507 9507 0 0 1-160.153-.06c-11.233-.11-37.51 1.31-46.478-1.05-2.446-.64-4.062-1.39-5.261-3.67.163-.24.293-.51.488-.72 4.908-5.45 52.757-3.72 62.8-3.83l-.169-41.7a2370 2370 0 0 0-61.906.51l.001-14.02a5785 5785 0 0 0 58.975-.5l-.012-43.6-60.131-.17-.02-14.59 60.538-.07-.02-44.27c-20.127.06-40.271-.37-60.397-.6-.267-4.67-.181-9.38-.209-14.05 19.962-.37 40.01-.01 59.98.01-1.236-14.43-.551-29.36-.585-43.86a1309 1309 0 0 1-59.193-.15z"/><path fill="#252557" d="M995.863 1272.16c4.827-.11 9.487-.39 14.237.63 1.39 4.34 2.38 209.66 0 217.1l-14.957-.11c-1.034-72.47.9-145.11.72-217.62"/><path fill="#151B3E" d="M1010.1 1272.79c1.39 4.34 2.38 209.66 0 217.1-.23-.34-.53-.64-.7-1.01-1.05-2.39-3.01-209.3-1.53-215.32z"/><path fill="#252557" d="M950.409 1270.47c5.296-.16 10.625.02 15.924.09 1.373 46.06.47 92.35.502 138.44.018 26.55 2.187 54.66-.23 81.01l-15.739-.02zM906.871 131.517a7036 7036 0 0 1 109.939-.102c24.49-.056 49.34-1.192 73.76.123 18.15 21.632 42.41 45.051 62.5 65.632 20.72 21.229 40.74 43.1 61.26 64.524 12.34 12.89 28.76 25.573 38.86 40.175-.48 32.28.34 64.645.32 96.936l-.33 200.712c.04 40.594 1.74 81.982-.05 122.482-.15 3.466-.3 7.751-1.75 10.916s-8.1 5.469-11.38 6.794c-25.75 10.424-52.97 18.489-79.25 27.565L966.3 833.649c-17.938 6.328-146.356 52.645-155.993 51.117-2.148-1.628-3.346-2.349-3.929-5.199-.597-2.915.681-6.762 1.954-9.338 5.437-10.997 13.285-21.557 19.481-32.222a3785 3785 0 0 1 61.42-102.107c-17.479 6.264-86.129 31.433-99.699 28.992-2.577-2.603-2.954-7.398-3.49-11.011-2.242-15.136-.561-32.296-.5-47.664l.283-97.565-.199-349.057c-.006-15.449-2.369-118.625 2.957-125.595 11.92-4.671 98.556-2.407 118.286-2.483"/><path fill="#FEFEFE" d="M1097.5 162.323c12.21 9.27 26.49 28.809 37.78 40.606 25.53 26.674 51.72 52.637 77.06 79.538 4.26 4.532 11.44 9.651 14.27 14.959l-1.44.914-128.47.102.08-83.134c.07-17.623-.3-35.392.72-52.985"/><path fill="#FEFEFE" d="M802.025 147.969c30.44-.882 61.122.01 91.599-.044l186.706.078c-1.27 30.691-.4 61.736-.45 92.476-.03 18.584-2.5 54.603 1.66 71.678 2.07 1.841 3.83 1.795 6.56 2.051 15.3 1.435 31.68.293 47.11.294a9126 9126 0 0 0 101.84-.47l-.21 409.387c-19.34 6.198-38.2 13.601-57.36 20.282a4647 4647 0 0 1-128.7 43.14c-17.12 6.754-35.36 12.031-52.785 18.155-54.62 19.195-109.486 37.375-163.932 57.12 8.54-16.555 18.621-32.595 28.083-48.657 9.635-16.354 18.839-32.975 28.604-49.245 7.539-12.561 16.855-25.358 23.177-38.505 1.35-2.807 1.878-5.046 2.116-8.144-.992-2.584-1.063-2.693-3.386-4.194-11.411-1.515-90.156 28.045-110.482 32.451-1.247-74.135-.014-148.498.062-222.657z"/><path fill="#252557" d="M872.121 619.256c24.681.25 49.389.015 74.072-.05 11.599-.03 23.673-.696 35.226.119 5.008.353 7.915.58 11.351 4.423.634 2.6.898 5.069-.373 7.54-1.45 2.818-3.034 3.502-5.777 4.633a6314 6314 0 0 0-98.465.11c-7.103.035-15.122 1.135-20.553-4.241-.816-1.747-1.35-2.905-1.107-4.904.482-3.955 2.58-5.607 5.626-7.63m-.158-130.041c67.522-.911 135.147-.013 202.677-.065l61.98-.113c7.95-.032 17.15-1.249 24.92-.082 2.42.364 4.98 1.435 6.25 3.655 1.32 2.305 1.69 5.244.82 7.767-.85 2.468-2.38 3.544-4.57 4.711l-197.576.026a2713 2713 0 0 0-53.716.175c-11.926.154-24.541 1.126-36.399.01-3.658-.345-5.724-.773-8.484-3.426-1.042-2.079-1.394-3.485-.983-5.834.592-3.39 2.528-4.899 5.081-6.824m-1.689-65.065c55.898-1.745 112.315-.11 168.266-.186l69.9-.114c15.3-.143 31.01-1.066 46.27-.195 3.96.227 9.88.83 13.13 3.414 1.73 1.379 2.68 3.272 2.4 5.502-.38 3.054-2.47 5.184-4.54 7.232-50.7 1.761-102.07.167-152.85.203l-88.523-.032c-15.051-.018-30.345.54-45.366-.193-3.098-.151-7.748-.135-10.282-2.113-1.987-1.551-2.909-3.218-2.852-5.766.074-3.377 2.25-5.487 4.447-7.752m.67 129.999c57.58-1.521 115.507-.147 173.126-.196l73.84-.039c13.6.006 27.51-.584 41.06.441 3.73.283 6.12.529 8.99 3.132 1.17 2.351 1.52 3.869 1.04 6.425-.66 3.546-2.46 4.487-5.24 6.294-70.45-1.738-141.26.466-211.754.182-23.388-.094-47.985 1.918-71.194-.119-3.751-.329-9.446-1.072-12.474-3.57-2.189-1.806-2.187-3.011-2.365-5.583 1.409-2.938 2.48-4.835 4.971-6.967m3.478-195.838c29.754-.525 59.673.396 89.451.266 20.4-.088 192.247-2.787 199.897-.155 2.33.804 4.03 2.292 4.98 4.614 1.07 2.639.48 4.575-.3 7.116-2.11 2.555-3.73 3.368-6.8 4.542-23.07-.73-46.39.215-69.49.251l-149.93.176-45.892.026c-6.439.028-13.12.637-19.531.284-3.317-.183-6.984-1.822-8.872-4.655-1.304-1.955-1.623-4.533-.763-6.733 1.323-3.382 4.089-4.679 7.25-5.732m701.988 326.115c29.52-1.158 60.83.609 89.67 7.212a321.47 321.47 0 0 1 202.2 141.209c49.56 79.204 62.47 167.773 40.9 258.393-19.98 83.91-77.42 157.19-150.17 202.06-75.38 46.49-162.32 57.66-247.89 37.41-38.72-10.56-71.28-27.08-104.68-49.04-36.83 22.48-80.22 35.42-122.81 41.33-10.71 1.49-25.23 2.85-34.13-4.45-4.64-3.8-6.79-9.41-7.05-15.31-1.63-37.69 44.68-97.34 69.47-125.06-27.45-42.85-41.37-94.23-44.27-144.68-4.96-86.204 26-176.644 83.87-241.094a330.14 330.14 0 0 1 224.89-107.98"/><path fill="#FEFEFE" d="M1577.62 700.423a322.4 322.4 0 0 1 98.03 9.84 301.2 301.2 0 0 1 184.6 142.088c42.16 73.341 54.04 158.229 31.6 240.139a317.3 317.3 0 0 1-150.65 192.25 306.98 306.98 0 0 1-230.4 29.36 271.3 271.3 0 0 1-101.45-52.23c-11.5 5.74-21.97 13.1-33.77 18.47-20.66 9.4-92.77 33.38-113.13 25.69-1.86-2.13-2.78-3.86-2.95-6.7-1.54-24.63 41.55-84.17 58.16-103.16 3.42-3.91 10.72-11.04 11.62-16.07 1.27-7.07-11.62-23.23-15.05-29.77-2.77-5.29-5.06-10.94-7.38-16.44a281.2 281.2 0 0 1-22.16-93.19c-5.45-82.652 19.31-169.702 74.65-232.502a313.82 313.82 0 0 1 218.28-107.775"/><path fill="#252557" d="M1759.32 824.424c.24-.025.48-.058.72-.076 23.34-1.704 42.23 3.311 59.75 19.329 16.4 14.992 24.43 35.298 25.31 57.27 1.6 39.884-.19 80.355-.05 120.313l.29 56.04c.08 14.81 1.08 30.33-1.65 44.94-2.39 12.74-7.41 23.59-16.31 33.06-9.44 10.05-23.52 20.33-37.02 23.63-22.26 5.43-73.1 4.34-98.38 5.44a24218 24218 0 0 1-248.76 9.65c-21.68-.13-43.96-5.97-60.39-20.78-16.89-15.22-25.72-37.69-26.77-60.11-1.95-41.88.2-84.62.24-126.589l-.01-58.462c0-14.101-1.07-29.632 1.84-43.461a66.86 66.86 0 0 1 16.12-31.303c9.49-10.243 21.17-16.326 34.92-18.712 16.35-2.837 34.19-1.425 50.8-1.424 31.22.004 62.48.399 93.7-.032 25.22-.349 50.51-1.933 75.7-3.038z"/><path fill="#FEFEFE" d="M1758.92 839.429c17.42-1.001 32.71 1.566 46.47 13.221 14.14 11.973 21.45 30.033 22.7 48.215.86 12.64-.02 25.513-.04 38.183l.21 70.312a5088 5088 0 0 0 .42 57.34c.21 16.33 1.51 33.83-1.41 49.96-1.86 10.25-7.01 19.67-13.86 27.45-7.26 8.27-18.05 16.45-28.98 18.85-11.47 2.51-23.75 2.23-35.41 2.66a4911 4911 0 0 0-51.63 2 5865 5865 0 0 1-104.28 4.77c-49.75 1.68-99.73 2.57-149.41 5.56-17.87.35-34.69-3.81-48.45-15.68-13.41-11.57-21.13-28.69-22.39-46.21-2.72-37.9.1-77.98.05-116.104l-.11-67.953c-.02-13.183-1-27.226 1.03-40.271 1.54-9.906 5.3-18.954 12.1-26.463a47.56 47.56 0 0 1 28.03-15.324c13.79-2.252 29.12-1.031 43.13-1.059a6266 6266 0 0 0 79.5-.397 6410 6410 0 0 0 222.33-9.06"/><path fill="#252557" d="M1744.56 1083.27c7.58-.38 14.07.13 20.82 4.05 7.41 4.3 12.81 11.85 14.81 20.15 2 8.29.68 17.34-3.98 24.54-5.56 8.59-13.27 11.33-22.69 13.59-7.08.61-13.2.02-19.57-3.32a30.88 30.88 0 0 1-15.43-19.36 30.9 30.9 0 0 1 3.06-23.61c5.21-9.01 13.19-13.46 22.98-16.04"/><path fill="#FEFEFE" d="M1748.18 1098.2c2.61.28 5.23.56 7.66 1.63a15.7 15.7 0 0 1 8.66 9.75c1.34 4.33.53 9.19-1.84 13.01-3.25 5.22-7.39 7.01-13.19 8.29-2.26-.37-4.46-.71-6.57-1.65a16.38 16.38 0 0 1-8.77-9.71 15.84 15.84 0 0 1 1.42-12.89c2.95-5 7.16-7.09 12.63-8.43"/><path fill="#252557" d="M1538.86 1084.21c7.18.03 14.45 1.11 20.66 4.93 6.82 4.19 11.42 10.99 13.19 18.76a33.44 33.44 0 0 1-4.18 25.13c-5.64 8.88-13.43 12.54-23.28 14.77-6.99.92-13.8-.39-19.89-4-7.55-4.46-12.7-12.14-14.51-20.67-1.8-8.45-.37-17.42 4.43-24.66 5.63-8.51 13.82-12.4 23.58-14.26"/><path fill="#FEFEFE" d="M1538.13 1100.1c2.57-.16 5.18-.36 7.7.24 4.22 1.01 7.97 3.82 9.98 7.67 2.16 4.14 2.26 9.03.58 13.35-2.22 5.75-6.13 8.39-11.5 10.91-2.28.08-4.44.15-6.68-.35a16.03 16.03 0 0 1-10.47-7.8c-2.21-4.01-2.41-8.79-.94-13.09 2-5.83 6.06-8.3 11.33-10.93"/><path fill="#252557" d="M1435.95 1084.18c7-.36 12.53.25 18.75 3.66a33.94 33.94 0 0 1 16.05 20.18 31.93 31.93 0 0 1-3.32 25.01c-5.5 9.43-13.29 13.21-23.41 15.75-7.05.14-14.46-1.59-20.43-5.41a32.76 32.76 0 0 1-14.4-20.91 33.55 33.55 0 0 1 5.11-25.24c5.29-7.72 12.74-11.18 21.65-13.04"/><path fill="#FEFEFE" d="M1435.01 1100.05c2.35-.26 4.57-.49 6.92-.13 4.59.71 9.05 3.5 11.68 7.34 2.58 3.76 3.38 8.2 2.31 12.64-1.42 5.92-5.65 8.94-10.61 11.88-2.62.53-5.13 1.03-7.8.48a16.86 16.86 0 0 1-10.96-7.54c-2.36-3.81-3.02-8.74-1.9-13.06 1.57-6.07 5.13-8.64 10.36-11.61"/><path fill="#252557" d="M1640.31 1083.27c7.24-.46 14.32.67 20.78 4.06a30.88 30.88 0 0 1 15.57 19.1 31.74 31.74 0 0 1-3.7 24.71c-5.32 8.74-13.04 13.21-22.7 15.75-6.32.41-11.81.5-17.76-2.04a31.16 31.16 0 0 1-17.19-18.22 32.48 32.48 0 0 1 1.68-25.56c4.95-9.83 13.17-14.67 23.32-17.8"/><path fill="#FEFEFE" d="M1641.23 1099.06c2.33-.09 4.43-.11 6.71.43 4.64 1.08 9.03 3.72 11.52 7.86 2.31 3.83 2.71 8.28 1.34 12.52-1.86 5.75-6.09 8.88-11.19 11.63-2.98.11-6.02.23-8.92-.55-3.89-1.06-7.46-4.02-9.41-7.53-2.21-3.99-2.43-8.51-1.01-12.81 1.92-5.85 5.76-8.7 10.96-11.55"/><path fill="#252557" d="M1734.61 888.662c2.44.359 4.47 1.029 6.57 2.342 10.97 6.869 63.36 47.206 70.16 55.311 2.42 2.884 3.78 7.148 3.13 10.9-1.88 10.906-27.03 26.68-36.12 33.716-7.69 5.934-35.25 30.119-44.1 29.069-2.97-.36-6.38-2.63-8.07-5.05-3.75-5.38-2.54-107.986-.85-118.731 2.8-2.913 6.04-5.171 9.28-7.557m-283.32-24.157 118.5.162c21.42.035 45.57-2.085 66.69 1.379 8.51 1.395 15.49 4.184 21.95 10.005 11.85 10.667 16.43 24.576 17.11 40.035.8 18.05 2.03 83.403-1.46 97.994-2.37 9.97-7.03 19.41-14.09 26.9-11.21 11.9-25.83 16.54-41.74 17.05-36.38.53-72.8.23-109.19.35-21.7.07-54.14 2.56-74.8-2.14a48.8 48.8 0 0 1-23.58-12.93 57.3 57.3 0 0 1-14.89-25.28c-4.67-17.08-2.42-76.235-2.5-97.564-.06-15.714 1.72-31.073 13.73-42.655 12.8-12.33 27.61-13.269 44.27-13.306"/><path fill="#FEFEFE" d="M1433.24 880.092c41.91-1.661 87.57-.406 129.8-.33 17.59.032 55.95-1.913 70.92 1.583 8.04 1.878 15.93 8.226 19.96 15.371 2.97 5.273 4.23 11.228 4.89 17.188 1.32 12.021.03 24.772.05 36.89.04 16.731 1.08 33.845.11 50.536-.25 4.41-.89 8.8-2.19 13.03-3.89 12.54-11.77 19.28-23.03 25.01-5.1 1.44-9.76 2.39-15.06 2.63-27.85 1.3-56.16-.01-84.06.08-28.85.1-58.45 1.66-87.21.2-3.9-.2-8-.67-11.71-1.94-9.95-3.4-18.34-11.47-22.68-20.97-1.92-4.21-3.11-8.28-3.59-12.88-1.31-12.629-.9-98.244 2.56-106.78 4.14-10.234 11.66-15.269 21.24-19.618"/><path fill="#252557" d="M1504.87 887.808c.33-.003.67-.045 1.01-.01 8.02.836 75.48 50.32 85.9 58.898 3.28 2.698 6.16 5.618 8.75 8.991l-1.1.951 1.43.017c-4.33 12.104-31.14 26.786-42.27 34.635-13.85 10.3-32.98 26.19-48.55 32.75-3.29 1.39-5.83 2-9.16.58-2.42-4.53-3.1-10.06-3.51-15.14-1.36-16.695-.13-34.2-.16-50.979-.03-15.566-2.46-50.14.83-63.802.96-4.01 3.55-4.94 6.83-6.891"/><path fill="#FEFEFE" d="M1513.09 910.232c7.79 3.501 15.62 10.554 22.6 15.575a2295 2295 0 0 0 43.46 30.837c-8.97 6.112-17.62 12.72-26.36 19.175a1366 1366 0 0 0-39.04 28.411c-1.65-31.099-.55-62.813-.66-93.998"/><path fill="#252557" d="M666.5 679.295c4.511-.407 8.927-.155 13.408.443 14.527 1.941 27.814 10.742 36.617 22.28 7.718 10.116 10.687 18.679 11.928 31.238 1.284 12.983.544 26.569.552 39.619l.04 72.911a12958 12958 0 0 1 .637 237.814l.244 103.54c.062 16.03 1.998 34.88-.598 50.6-2.712 16.43-12.642 32.09-26.555 41.31-23.493 15.56-47.406 9.23-72.853 3.67a3059 3059 0 0 0-39.803-8.57c11.796 21.82 93.529 134.57 94.363 144.06.268 3.05-1.826 5.94-3.879 7.88-3.356.76-6.014.64-9.402.01-22.001-4.1-43.985-11.37-65.871-16.46l-230.968-55.81c-41.948-9.06-83.468-20.65-125.104-31.07-20.256-5.07-72.673-14.1-88.64-23.74-14.206-8.57-26.098-22.47-29.635-38.94-3.441-16.03-1.777-35.07-1.677-51.49.171-28.3.636-56.62.484-84.92a18448 18448 0 0 1-.456-191.362l-.145-56.85c-.034-11.302-.59-23.008.57-34.259 1.197-11.609 4.971-22.558 11.633-32.186a69.5 69.5 0 0 1 31.598-24.859c17.63-6.758 53.153-11.862 72.699-15.879l126.322-26.774 173.92-37.24c40.055-8.719 80.203-17.817 120.571-24.966"/><path fill="#FEFEFE" d="M669.789 695.403c8.938-.536 19.638 3.088 26.491 8.818 9.31 7.784 13.562 19.134 14.595 30.958.947 10.85.372 22.018.505 32.913a5754 5754 0 0 1 .586 70.374 18961 18961 0 0 1 .348 206.344l.635 130.36c.126 19.19 2.374 40.06.212 59.02-1.012 8.87-5.149 17.73-10.999 24.44-19.869 22.77-46.345 13.51-71.112 7.65l-39.778-9.1c-7.577-1.71-15.745-4.19-23.547-3.58-2.749 1.4-3.827 2.84-5.501 5.3l.187.47c-.41 3.5 2.65 7.67 4.436 10.67 11.525 19.35 25.366 37.8 38.092 56.41l53.309 79.28-283.377-68.8c-45.255-12.27-91.187-22.52-136.774-33.5-19.537-4.71-40.645-8.32-59.601-14.86-5.467-1.89-10.547-4.44-15.212-7.88-7.386-5.46-14.588-16.93-15.938-25.92-2.524-16.81-1.045-35.67-1.065-52.72l.351-114.94-.294-162.695c-.031-26.593-1.862-54.679.371-81.141.823-9.751 3.467-17.625 9.462-25.493 6.95-9.12 15.997-15.535 26.929-19.074 25.36-8.211 57.443-12.749 83.891-18.073 41.745-8.402 83.325-17.701 124.98-26.539l187.89-39.959c29.641-6.256 59.978-14.474 89.928-18.733"/><path fill="#252557" d="M468.73 969.039c8.057 3.625 14.623 10.673 19.185 18.149a60.53 60.53 0 0 1 7.041 46.872c-3.877 14.41-12.463 24.47-25.214 31.79-.279-.01-.559 0-.837-.04-3.249-.38-5.026-1.53-7.053-4.02-.812-8.48 15.547-22.07 18.174-37.5 2.895-17.01-7.322-26.993-15.928-39.746-1.871-2.773-3.535-5.729-2.483-9.19 1.014-3.335 4.3-4.747 7.115-6.315m-66.631-.058c2.215.631 5.192 1.243 6.931 2.836 8.265 7.571-8.594 19.77-12.932 25.887a37.1 37.1 0 0 0-6.372 15.556c-4.43 28.3 20.838 37.48 21.041 48.57-1.226 3.26-2.647 4.32-5.47 6.27-2.281-.04-4.608-.24-6.74-1.11-8.544-3.52-15.103-12.95-18.869-21.07a63.64 63.64 0 0 1-2.164-48.418c4.498-12.097 12.629-23.069 24.575-28.521"/><path fill="#252557" d="M496.016 920.898c.953.135 1.91.257 2.85.461 13.108 2.849 27.929 23.309 34.555 34.066a121 121 0 0 1 14.741 91.525c-6.796 27.95-25.688 55.2-50.38 70.19-2.732-.68-5.655-1.33-7.556-3.54-2.001-2.34-1.325-5.37-.012-7.85 3.026-5.7 9.788-10.52 14.495-14.97 17.658-16.71 27.114-37.62 29.313-61.79 2.472-27.17-4.972-55.566-23.373-76.082-5.793-6.458-13.313-11.53-18.613-18.373-1.831-2.364-2.929-4.823-2.075-7.853.774-2.746 3.812-4.356 6.055-5.784m-127.523.125c3.252-.09 6.026-.282 8.799 1.719 2.193 1.582 3.775 3.864 3.673 6.656-.268 7.372-14.321 14.82-19.205 20.044-18.416 19.699-29.567 46.022-28.354 73.248 1.059 23.78 10.155 47.66 27.196 64.64 5.119 5.11 11.562 9.12 16.456 14.34 1.67 1.78 2.353 4.02 2.035 6.46-.385 2.95-2.573 4.49-4.742 6.16-1.635.21-3.046.37-4.714.14-12.14-1.65-26.898-21.19-33.203-30.78a117.22 117.22 0 0 1-17.508-88.198c6.119-29.099 24.556-58.028 49.567-74.429"/><path fill="#252557" d="M527.79 874.704c1.252.048 1.944.043 3.236.25 11.732 1.878 36.75 33.313 43.494 43.111a179.45 179.45 0 0 1 28.42 133.735c-8.039 42.4-36.608 84.88-72.258 109.06-1.412.23-3.182.41-4.629.24-2.837-.33-3.861-1.02-5.495-3.25.125-11.93 21.569-27.34 29.87-35.68 26.313-26.43 39.168-68.44 38.891-105.04-.317-41.941-17.416-81.706-45.924-112.144-5.561-5.938-12.74-9.821-18.213-15.634-2.252-2.392-2.963-4.552-2.91-7.852 1.115-3.101 3.14-4.672 5.518-6.796m-189.193.045c2.88.511 5.276 1.546 7.144 3.88 6.612 8.26-21.247 28.534-26.277 34.38-22.494 26.141-38.078 59.369-41.11 93.921-4.024 45.84 12.549 87.4 43.881 120.53 7.239 7.66 18.887 14.12 24.892 22.33 1.665 2.27 1.465 3.66 1.159 6.34-1.79 2.9-3.44 4.02-6.369 5.71-.881-.24-1.757-.51-2.616-.82-22.028-7.93-50.422-46.9-60.339-67.58-20.34-42.43-21.958-89.17-6.186-133.447 9.898-27.784 38.879-72.349 65.821-85.244"/></svg>